<?xml version="1.0" encoding="utf-8"?><!DOCTYPE svg PUBLIC "-//W3C//DTD SVG 1.1//EN" "http://www.w3.org/Graphics/SVG/1.1/DTD/svg11.dtd"><svg viewBox="0 0 87 68" xmlns="http://www.w3.org/2000/svg" xmlns:xlink="http://www.w3.org/1999/xlink"><style>:root>svg{display:none}:root>svg:target{display:block}</style><svg fill="none" viewBox="0 0 87 61" id="Group" xmlns="http://www.w3.org/2000/svg"><path d="M18.296 40.595a1.36 1.36 0 1 0 2.265 1.503 25.52 25.52 0 0 1 21.297-11.453 1.36 1.36 0 0 0 0-2.718 28.233 28.233 0 0 0-23.562 12.668Z" fill="#000"/><path d="M85.64 57.833h-8.156v-1.642a32.072 32.072 0 0 0-9.931-23.319 1.36 1.36 0 1 0-1.885 1.959 29.382 29.382 0 0 1 9.097 21.36v1.642h-62.53v-1.642c.017-16.353 13.27-29.606 29.623-29.624h3.284c2.525-.001 5.04.319 7.485.952a1.36 1.36 0 1 0 .68-2.63 32.327 32.327 0 0 0-5.729-.94V19.77c0-.75-.609-1.359-1.36-1.359h-5.437c-.75 0-1.36.609-1.36 1.36v4.178C22.565 25.24 9.539 39.284 9.516 56.191v1.642H1.36a1.36 1.36 0 0 0 0 2.719h84.282a1.36 1.36 0 0 0 0-2.719ZM42.14 21.13h2.72v2.719h-2.72v-2.72Z" fill="#000"/><path d="M57.548 17.382c1.265 1.13 2.264 2.021 2.264 3.842 0 1.82-.999 2.712-2.264 3.848a7.435 7.435 0 0 0-3.173 5.864 1.36 1.36 0 0 0 2.719 0c0-1.82.999-2.712 2.264-3.841a7.441 7.441 0 0 0 3.173-5.871 7.438 7.438 0 0 0-3.172-5.87c-1.266-1.13-2.265-2.022-2.265-3.84 0-1.82.999-2.71 2.264-3.84a7.432 7.432 0 0 0 3.173-5.866 1.36 1.36 0 0 0-2.718 0c0 1.817-1 2.707-2.265 3.837a7.433 7.433 0 0 0-3.173 5.869 7.437 7.437 0 0 0 3.173 5.868Z" fill="#000"/><path d="M65.704 17.382c1.266 1.13 2.265 2.021 2.265 3.842 0 1.82-1 2.718-2.265 3.843a7.436 7.436 0 0 0-3.173 5.87 1.36 1.36 0 0 0 2.719 0c0-1.82 1-2.713 2.265-3.842a7.441 7.441 0 0 0 3.172-5.871 7.438 7.438 0 0 0-3.172-5.87c-1.266-1.13-2.265-2.022-2.265-3.84 0-1.82 1-2.71 2.265-3.84a7.432 7.432 0 0 0 3.172-5.866 1.36 1.36 0 0 0-2.718 0c0 1.817-1 2.707-2.265 3.837a7.433 7.433 0 0 0-3.173 5.869 7.438 7.438 0 0 0 3.173 5.868ZM73.86 17.382c1.266 1.13 2.265 2.021 2.265 3.842 0 1.82-1 2.718-2.265 3.843a7.435 7.435 0 0 0-3.172 5.87 1.36 1.36 0 0 0 2.718 0c0-1.82 1-2.713 2.265-3.842a7.442 7.442 0 0 0 3.173-5.871 7.439 7.439 0 0 0-3.173-5.87c-1.266-1.13-2.265-2.022-2.265-3.84 0-1.82 1-2.71 2.265-3.84a7.432 7.432 0 0 0 3.173-5.866 1.36 1.36 0 0 0-2.719 0c0 1.817-1 2.707-2.265 3.837a7.433 7.433 0 0 0-3.172 5.869 7.437 7.437 0 0 0 3.172 5.868Z" fill="#000"/></svg><svg fill="none" viewBox="0 0 68 68" id="Rectangle_28" xmlns="http://www.w3.org/2000/svg"><path stroke="#FF7400" stroke-width="3" d="m2.121 33.981 31.86-31.86 31.86 31.86-31.86 31.86z"/></svg><svg fill="none" viewBox="0 0 68 68" id="Rectangle_29" xmlns="http://www.w3.org/2000/svg"><path stroke="#FF7400" stroke-width="3" d="m2.159 33.981 31.86-31.86 31.86 31.86-31.86 31.86z"/></svg><svg xml:space="preserve" viewBox="0 0 40 40" id="cart-svgrepo-com" xmlns="http://www.w3.org/2000/svg"><g fill-rule="evenodd" clip-rule="evenodd"><path d="M13.786 29.113a1.853 1.853 0 0 1-1.853-1.85l-.245-1.479-.287-1.924a1.852 1.852 0 0 1-.076-.498L9.373 9.702l-.338-2.035H5.377a.878.878 0 0 1-.877-.876c0-.482.394-.875.877-.875h3.899a.64.64 0 0 1 .169.03l.025.006.075.007a.88.88 0 0 1 .218-.044c.484 0 .878.393.878.875l.186 1.122.097-.017a1.78 1.78 0 0 1 .304-.033h22.421c1.021 0 1.852.831 1.852 1.853v11.699c0 1.021-.83 1.851-1.852 1.851-.092.001-9.072.071-14.472.638-2.596.273-5.058 1.01-5.75 1.229l-.079.025.329 2.203h18.997c.482 0 .877.394.877.877s-.395.876-.877.876H13.786zM12.445 9.618c-.592 0-1.073.48-1.073 1.071l1.626 11.387a1.07 1.07 0 0 0 1.074 1.059c.054-.015 1.638-.682 4.483-1.018 4.797-.565 14.026-.605 14.12-.605.59 0 1.072-.48 1.072-1.073v-9.75c0-.59-.482-1.071-1.072-1.071h-20.23zM15.948 30.188a1.948 1.948 0 0 0 0 3.897 1.948 1.948 0 1 0 0-3.897z"/><circle cx="29.598" cy="32.136" r="1.949"/></g></svg><svg xml:space="preserve" viewBox="0 0 40 40" id="phone-svgrepo-com" xmlns="http://www.w3.org/2000/svg"><g fill="#010101"><path d="M12.419 35a6.236 6.236 0 0 1-5.399-3.134l-1.706-2.98a2.398 2.398 0 0 1 .886-3.261l3.979-2.477a2.467 2.467 0 0 1 1.22-.323c.818 0 1.567.411 2.004 1.101l.559.88a.895.895 0 0 0 .739.412c.11 0 .218-.023.316-.066 2.157-.861 4.979-3.395 5.794-4.149.039-.041 3.306-3.452 4.332-5.987a.87.87 0 0 0-.342-1.044l-.883-.563a2.39 2.39 0 0 1-.785-3.205l2.502-4.029C25.813 5.864 26.569 5 27.7 5c.394 0 .797.107 1.201.32l2.964 1.695c2.482 1.425 3.695 4.408 2.885 7.096-1.422 4.729-4.106 8.979-7.979 12.632-3.672 3.884-7.928 6.572-12.657 8.001a5.645 5.645 0 0 1-1.695.256zm-1.038-10.669a.837.837 0 0 0-.446.127l-3.963 2.467a.91.91 0 0 0-.431.549.853.853 0 0 0 .08.657l1.706 2.983c.846 1.476 2.449 2.467 3.987 2.467.499 0 .98-.102 1.429-.301 10.237-4.555 15.351-9.669 19.54-19.546.798-1.877-.156-4.25-2.168-5.403l-2.982-1.707a.996.996 0 0 0-.467-.123.81.81 0 0 0-.758.515l-2.471 3.96a.872.872 0 0 0 .309 1.155l.869.554a2.38 2.38 0 0 1 .938 2.895c-1.116 2.749-4.486 6.303-4.63 6.453-.029.027-3.607 3.427-6.349 4.527a2.324 2.324 0 0 1-.868.168c-.816 0-1.57-.416-2.018-1.112l-.556-.88a.921.921 0 0 0-.751-.405zM6.768 17.132a.753.753 0 0 1-.754-.753c0-5.718 4.649-10.37 10.364-10.37.417 0 .755.34.755.754a.756.756 0 0 1-.755.755c-4.882 0-8.856 3.971-8.856 8.855a.759.759 0 0 1-.754.759zM12.343 17.132a.753.753 0 0 1-.753-.753 4.791 4.791 0 0 1 4.788-4.787.755.755 0 1 1 0 1.507 3.284 3.284 0 0 0-3.28 3.28.755.755 0 0 1-.755.753z"/></g></svg></svg>